
<svg width="797px" height="157px" viewBox="0 0 797 157" version="1.1" xmlns="http://www.w3.org/2000/svg" xmlns:xlink="http://www.w3.org/1999/xlink">
    <defs>
        <linearGradient x1="-1.11022302e-14%" y1="50%" x2="100%" y2="50%" id="linearGradient-1">
            <stop stop-color="#D5A435" stop-opacity="0.985507246" offset="0%"></stop>
            <stop stop-color="#FDC23B" stop-opacity="0.985507246" offset="100%"></stop>
        </linearGradient>
    </defs>
    <g id="Page-1" stroke="none" stroke-width="1" fill="none" fill-rule="evenodd">
        <g id="Group-2" transform="translate(0.000000, -2.000000)">
            <path d="M268.029297,158 L242.591797,75.1113281 L241.941406,75.1113281 C242.856775,91.9733916 243.314453,103.222628 243.314453,108.859375 L243.314453,158 L223.296875,158 L223.296875,52.3476562 L253.792969,52.3476562 L278.796875,133.140625 L279.230469,133.140625 L305.751953,52.3476562 L336.248047,52.3476562 L336.248047,158 L315.363281,158 L315.363281,107.992188 C315.363281,105.631499 315.399414,102.909521 315.47168,99.8261719 C315.543946,96.7428231 315.869138,88.5528009 316.447266,75.2558594 L315.796875,75.2558594 L288.552734,158 L268.029297,158 Z M440.133867,158 L379.286211,158 L379.286211,52.3476562 L440.133867,52.3476562 L440.133867,70.703125 L401.688555,70.703125 L401.688555,93.9003906 L437.460039,93.9003906 L437.460039,112.255859 L401.688555,112.255859 L401.688555,139.5 L440.133867,139.5 L440.133867,158 Z M563.603672,158 L538.166172,158 L510.488438,113.484375 L501.021641,120.277344 L501.021641,158 L478.619297,158 L478.619297,52.3476562 L501.021641,52.3476562 L501.021641,100.693359 L509.838047,88.2636719 L538.455235,52.3476562 L563.31461,52.3476562 L526.459141,99.1035156 L563.603672,158 Z M678.329336,158 L652.891836,158 L625.214102,113.484375 L615.747305,120.277344 L615.747305,158 L593.344961,158 L593.344961,52.3476562 L615.747305,52.3476562 L615.747305,100.693359 L624.563711,88.2636719 L653.180899,52.3476562 L678.040274,52.3476562 L641.184805,99.1035156 L678.329336,158 Z M772.74836,158 L765.088203,132.851562 L726.570625,132.851562 L718.910469,158 L694.77375,158 L732.062813,51.9140625 L759.451485,51.9140625 L796.885078,158 L772.74836,158 Z M759.740547,114.0625 C752.658481,91.2746256 748.671867,78.3873847 747.780586,75.4003906 C746.889306,72.4133965 746.250966,70.052743 745.865547,68.3183594 C744.275695,74.4850569 739.723007,89.7329513 732.207344,114.0625 L759.740547,114.0625 Z" id="MEKKA" fill="#FFFFFF"></path>
            <g id="Group" transform="translate(0.000000, 2.000000)" fill="url(#linearGradient-1)">
                <polygon id="Path" points="-1.42108547e-14 51 86 0 176 51 176 83 86 33 -1.42108547e-14 83"></polygon>
                <polygon id="Path-2" points="-1.42108547e-14 102.75 86.2284792 53 176.25 102.75 176.25 156.75 152.480273 156.75 152.480273 118 88.125 81.25 24.2754663 118 24.2754663 156.75 -1.42108547e-14 156.75"></polygon>
                <polygon id="Path-3" points="42 156.5 42 122.5 63 111 63 156.5"></polygon>
            </g>
        </g>
    </g>
</svg>